<svg xmlns="http://www.w3.org/2000/svg" width="512" height="512" viewBox="0 0 512 512" version="1.1">
	<path d="M 242.751 1.426 C 240.689 2.161, 236.158 4.617, 232.680 6.882 C 229.203 9.148, 223.947 11.718, 220.999 12.593 C 218.052 13.468, 213.134 15.308, 210.070 16.682 C 207.007 18.055, 202.066 19.827, 199.091 20.618 C 196.115 21.410, 190.490 23.371, 186.591 24.976 C 182.569 26.631, 180.514 27.159, 181.843 26.197 C 187.903 21.809, 197.004 16.741, 202.281 14.817 C 210.115 11.961, 208.294 10.495, 199.253 12.380 C 191.038 14.093, 167.635 25.203, 152.119 34.756 C 146.192 38.405, 143.624 35.307, 147.654 29.368 C 149.892 26.070, 149.323 26.394, 142.950 32.045 C 138.962 35.580, 132.088 42.389, 127.673 47.176 C 120.812 54.616, 119.371 55.734, 117.759 54.871 C 116.435 54.162, 115.443 54.217, 114.434 55.055 C 113.587 55.758, 111.729 55.996, 109.916 55.633 C 106.638 54.978, 102.567 56.490, 103.508 58.014 C 104.147 59.046, 100.548 63, 98.970 63 C 98.404 63, 98.914 61.682, 100.105 60.072 C 102.682 56.586, 102.039 53.936, 98.682 54.214 C 96.921 54.360, 96.418 54.883, 96.764 56.206 C 97.092 57.458, 96.670 58, 95.367 58 C 94.005 58, 93.491 58.744, 93.467 60.750 C 93.448 62.263, 93.898 63.831, 94.467 64.235 C 95.035 64.639, 94.349 64.976, 92.943 64.985 C 91.032 64.996, 89.567 63.839, 87.151 60.412 C 84.479 56.622, 83.663 56.034, 82.459 57.034 C 81.656 57.700, 81 59.667, 81 61.404 C 81 64.053, 80.595 64.597, 78.500 64.771 C 77.125 64.884, 76 64.533, 76 63.989 C 76 63.445, 74.875 63, 73.500 63 C 71.944 63, 71 63.567, 71 64.500 C 71 66.038, 68.880 66.547, 67.641 65.308 C 67.260 64.927, 66.110 64.487, 65.084 64.331 C 63.567 64.099, 63.089 64.922, 62.513 68.760 C 61.775 73.682, 59.514 79, 58.160 79 C 57.180 79, 53.747 85.857, 53.505 88.294 C 53.394 89.421, 53.825 89.897, 54.664 89.575 C 55.399 89.293, 56 89.638, 56 90.340 C 56 91.043, 56.712 92.491, 57.582 93.559 C 59.141 95.473, 59.154 95.472, 58.522 93.500 C 58.008 91.896, 58.131 91.747, 59.141 92.750 C 60.120 93.722, 60.133 94.267, 59.200 95.200 C 58.540 95.860, 58 95.999, 58 95.509 C 58 95.019, 57.318 95.491, 56.486 96.559 C 55.653 97.626, 55.090 98.050, 55.236 97.500 C 55.381 96.950, 55.050 96.500, 54.500 96.500 C 53.950 96.500, 53.650 96.950, 53.832 97.500 C 54.015 98.050, 53.050 97.454, 51.688 96.175 C 49.286 93.920, 47.015 94.598, 48.566 97.107 C 49.043 97.879, 49.501 97.808, 50.081 96.869 C 50.665 95.925, 50.863 96.175, 50.747 97.712 C 50.624 99.337, 50.262 99.633, 49.335 98.863 C 47.654 97.468, 45.936 98.669, 46.714 100.696 C 47.156 101.848, 46.965 102.097, 46.066 101.541 C 45.339 101.092, 45.528 101.876, 46.506 103.368 C 47.448 104.806, 48.559 105.772, 48.976 105.515 C 49.392 105.258, 50.580 106.014, 51.616 107.195 C 52.652 108.377, 52.938 109.015, 52.250 108.613 C 51.543 108.199, 51 108.395, 51 109.063 C 51 109.897, 50.501 109.841, 49.308 108.872 C 48.158 107.940, 47.857 107.901, 48.367 108.750 C 48.865 109.578, 48.464 110, 47.180 110 C 45.973 110, 44.777 111.123, 44.008 112.981 C 42.504 116.611, 43.449 121.425, 45.510 120.635 C 46.294 120.334, 47.248 120.630, 47.628 121.294 C 48.009 121.957, 47.970 122.184, 47.541 121.798 C 46.660 121.003, 44 123.318, 44 124.879 C 44 125.441, 44.726 126.307, 45.614 126.804 C 46.720 127.423, 47.012 128.387, 46.542 129.868 C 46.165 131.057, 45.400 131.747, 44.842 131.402 C 44.236 131.028, 43.955 131.752, 44.145 133.202 C 44.408 135.203, 42.594 137.242, 33.809 144.826 C 18.381 158.146, 4 174.489, 4 178.702 C 4 179.378, 5.404 181.529, 7.120 183.484 L 10.239 187.037 5.620 191.975 C 0.751 197.181, 0.098 198.648, 2.417 199.177 C 3.196 199.355, 5.372 201.750, 7.253 204.500 C 10.861 209.776, 15.681 213.643, 19.941 214.681 C 22.588 215.326, 25.968 217.752, 32 223.339 C 33.925 225.122, 36.963 227.180, 38.750 227.912 C 42.516 229.454, 42.431 229.016, 40.536 237.188 C 38.876 244.345, 38.334 254.050, 39.345 258.500 C 39.935 261.093, 38.727 263.668, 30.433 277.500 C 15.405 302.564, 1.526 332.822, 0.388 343 C 0.038 346.132, 0.155 346.010, 1.500 341.848 C 3.600 335.349, 7.410 330.010, 24.621 309.448 C 32.884 299.576, 42.471 287.675, 45.927 283 C 49.382 278.325, 52.376 274.323, 52.580 274.107 C 52.785 273.892, 53.608 274.260, 54.411 274.926 C 55.663 275.965, 55.169 277.573, 50.943 286.214 C 47.854 292.532, 44.353 297.977, 41.558 300.812 C 33.241 309.249, 27.340 323.912, 30.851 327.422 C 32.192 328.764, 32.239 329.597, 31.178 333.244 C 26.018 350.979, 23.889 361.116, 23.880 368 C 23.860 383.455, 24.776 395.636, 26.273 399.827 C 27.762 403.994, 27.725 404.359, 25.276 409.708 C 22.080 416.690, 19.038 428.263, 19.023 433.500 C 19.006 439.431, 20.768 444.709, 23.959 448.280 L 26.794 451.453 23.023 458.977 C 18.741 467.521, 13.956 480.287, 14.090 482.810 C 14.140 483.739, 14.606 483.024, 15.126 481.221 C 15.938 478.407, 16.458 477.992, 18.786 478.296 C 21.720 478.679, 24.250 482.525, 24.250 486.600 C 24.250 488.250, 25.725 486.571, 29.431 480.703 C 36.015 470.277, 56.395 443.689, 56.822 444.969 C 57 445.500, 56.454 449.437, 55.610 453.717 C 53.129 466.294, 51.999 476.526, 52.011 486.322 C 52.024 497.107, 52.976 504.420, 53.990 501.529 C 54.450 500.216, 55.049 501.521, 55.962 505.822 L 57.273 512 73.253 512 L 89.233 512 88.576 509.750 C 88.215 508.513, 86.769 501.875, 85.363 495 C 79.661 467.109, 81.604 439.291, 90.241 425.149 L 92.288 421.798 93.524 425.391 C 95.859 432.183, 100.960 434.623, 119.613 437.872 C 131.476 439.937, 134.348 441.073, 143.031 447.126 C 162.749 460.874, 169.136 487.353, 156.041 501.063 C 149.246 508.177, 134.124 508.560, 126.440 501.813 C 122.327 498.202, 121.874 499.192, 125.750 503.318 L 128.500 506.246 123.513 505.526 C 120.770 505.130, 117.305 504.175, 115.813 503.403 C 111.707 501.280, 111.583 501.695, 115.338 504.992 C 121.191 510.131, 126.526 511.953, 135.790 511.978 C 147.821 512.010, 154.362 508.248, 162.108 496.841 C 168.850 486.912, 171.378 479.063, 171.397 468 C 171.415 457.519, 170.213 453.581, 164.972 446.965 C 159.917 440.582, 152.942 437.861, 139.204 436.913 C 125.457 435.965, 121.686 435.004, 116.241 431.059 C 109 425.814, 106.361 421.111, 106.844 414.312 C 107.002 412.099, 116.039 399.549, 122.287 392.867 C 126.407 388.460, 134.929 385.546, 139.697 386.913 C 141.427 387.409, 143.327 387.407, 144.116 386.907 C 146.357 385.488, 149.656 385.865, 153.193 387.945 C 155.012 389.014, 158.657 390.371, 161.293 390.959 C 164.713 391.721, 166.950 393.012, 169.104 395.466 C 170.765 397.357, 172.970 399.173, 174.005 399.502 C 175.244 399.895, 176.448 402.030, 177.532 405.757 C 179.833 413.672, 182.931 419.427, 189.250 427.521 C 193.614 433.110, 194.804 435.444, 195.226 439.241 C 195.515 441.848, 196.982 446.413, 198.486 449.385 C 201.446 455.234, 202.184 463.265, 200.210 468.126 C 198.204 473.067, 196.934 478.957, 197.159 482.286 C 197.365 485.355, 194.948 490.615, 193.841 489.507 C 193.577 489.243, 194.157 492.509, 195.129 496.764 C 196.102 501.019, 197.166 506.188, 197.494 508.250 L 198.091 512 225.007 512 L 251.923 512 252.922 508.250 C 256.277 495.663, 258.065 485.711, 258.586 476.726 C 258.913 471.102, 259.674 464.925, 260.278 463 C 261.524 459.027, 261.419 455.674, 259.823 448.500 C 258.968 444.658, 257.803 442.717, 254.793 440.119 C 246.757 433.183, 229.123 408, 232.301 408 C 232.467 408, 236.331 409.084, 240.887 410.408 L 249.171 412.817 248.509 410.180 C 247.116 404.632, 237.603 380.690, 237.233 381.802 C 236.622 383.633, 231 380.306, 231 378.114 C 231 377.105, 230.748 374.079, 230.441 371.390 C 229.902 366.677, 229.937 366.590, 231.405 369 C 233.674 372.722, 233.314 370.960, 230.513 364.624 C 229.145 361.531, 228.357 358.948, 228.763 358.885 C 229.168 358.822, 230.400 358.817, 231.500 358.876 C 233.223 358.967, 233.176 358.844, 231.158 357.989 C 229.869 357.443, 228.407 357.249, 227.908 357.557 C 227.408 357.866, 227 357.641, 227 357.059 C 227 356.477, 226.662 356.002, 226.250 356.005 C 225.838 356.008, 225.492 359.375, 225.482 363.487 C 225.468 369.288, 225.067 371.361, 223.696 372.732 C 222.151 374.277, 221.808 374.311, 220.979 373 C 220.292 371.913, 220.026 371.861, 220.015 372.809 C 220.007 373.529, 219.549 373.839, 218.997 373.498 C 218.341 373.093, 218.398 372.122, 219.161 370.689 C 220.232 368.678, 220.186 368.617, 218.589 369.934 C 217.633 370.723, 215.740 373.423, 214.381 375.934 L 211.911 380.500 212.511 376 C 214.122 363.903, 214.246 361.730, 213.292 362.319 C 212.727 362.669, 212.265 361.616, 212.215 359.863 C 212.167 358.175, 211.860 356.527, 211.533 356.200 C 211.206 355.872, 211.044 356.999, 211.174 358.703 C 211.304 360.407, 210.829 362.501, 210.119 363.357 C 209.409 364.212, 209.106 365.363, 209.447 365.913 C 210 366.809, 202.548 383, 201.582 383 C 200.828 383, 202.313 378.453, 205.830 370 C 207.775 365.325, 209.621 359.475, 209.933 357 C 210.472 352.725, 210.650 352.512, 213.500 352.731 C 215.697 352.900, 215.027 352.426, 211 350.959 C 194.522 344.961, 180.241 335.040, 173.096 324.629 C 169.605 319.542, 159.768 301.897, 160.191 301.481 C 160.361 301.315, 163.662 302.240, 167.527 303.539 C 171.392 304.837, 177.692 306.154, 181.527 306.467 C 188.411 307.028, 188.448 307.018, 184.447 305.681 C 176.788 303.123, 167.546 297.492, 161.991 292 C 156.884 286.950, 150.434 276.459, 148.470 270.008 C 147.765 267.691, 147.840 267.621, 149.532 269.008 C 150.859 270.096, 150.627 269.257, 148.676 265.912 C 145.235 260.013, 145.285 256.832, 148.881 252.808 L 151.761 249.584 154.844 255.542 C 156.539 258.819, 158.867 262.625, 160.018 264 C 161.892 266.241, 161.856 265.983, 159.667 261.500 C 158.324 258.750, 156.643 254.552, 155.931 252.171 C 154.458 247.248, 155.304 246.043, 160.250 246.015 C 161.762 246.007, 163 245.475, 163 244.833 C 163 244.192, 163.289 243.956, 163.643 244.309 C 163.996 244.663, 163.696 245.662, 162.976 246.529 C 161.092 248.799, 161.330 258.832, 163.360 262.743 C 164.286 264.526, 165.371 265.935, 165.772 265.874 C 167.793 265.566, 169 266.142, 169 267.417 C 169 268.196, 168.438 269.022, 167.750 269.253 C 167.014 269.501, 168.884 272.004, 172.295 275.337 C 177.492 280.416, 178.523 280.998, 182.295 280.985 C 189.185 280.960, 195.275 278.670, 197.204 275.379 C 199.179 272.010, 201.497 258.613, 200.409 256.853 C 199.902 256.033, 200.208 255.866, 201.388 256.319 C 203.257 257.036, 202.863 255.859, 200.193 252.750 C 199.074 251.448, 199.017 251, 199.967 251 C 200.968 251, 200.947 250.620, 199.872 249.250 C 198.630 247.666, 198.665 247.630, 200.239 248.863 C 201.195 249.613, 201.686 250.738, 201.329 251.363 C 200.972 251.988, 201.041 252.173, 201.484 251.773 C 201.926 251.373, 203.814 252.385, 205.679 254.023 C 211.128 258.807, 211.005 257.456, 205.458 251.590 C 199.475 245.263, 194.224 235.705, 190.591 224.528 C 187.370 214.618, 187.323 213.012, 190.250 212.961 C 192.204 212.927, 192.099 212.747, 189.450 211.593 C 186.620 210.361, 186.305 209.695, 185.091 202.382 C 184.372 198.047, 183.616 188.200, 183.412 180.500 L 183.042 166.500 184.543 174.500 C 189.339 200.046, 197.768 220.206, 210.826 237.361 C 213.280 240.584, 216.395 245.517, 217.748 248.321 C 223.605 260.462, 229.753 267.626, 235.934 269.510 C 238.336 270.242, 238.329 270.202, 235.338 266.376 C 233.673 264.244, 231.049 260.323, 229.508 257.661 L 226.706 252.823 232.866 255.932 C 239.814 259.439, 246.814 260.783, 249.626 259.149 C 251.270 258.194, 251.118 258.057, 248.390 258.030 C 243.557 257.983, 233.797 252.363, 227.505 246.005 C 222.700 241.150, 221.567 239.297, 220.385 234.365 C 218.884 228.106, 218.392 203.240, 219.607 195.132 L 220.299 190.517 222.203 197.466 C 226.362 212.650, 239.724 235.459, 250.881 246.423 C 256.165 251.616, 257.523 252.426, 261.889 252.986 L 266.869 253.625 265.097 251.062 C 261.408 245.727, 261.814 244.434, 265.923 248.435 C 270.353 252.750, 271.623 252.770, 270 248.500 C 268.606 244.832, 269.315 244.305, 271.388 247.469 C 274.002 251.459, 275.422 250.418, 272.909 246.353 L 270.655 242.705 275.077 238.882 C 277.510 236.780, 280.063 235.046, 280.750 235.030 C 281.438 235.013, 282 234.550, 282 234 C 282 233.450, 282.360 233, 282.799 233 C 283.239 233, 283.416 234.563, 283.193 236.473 C 282.656 241.069, 284.819 250, 286.334 249.447 C 286.975 249.213, 288.175 249.490, 289 250.062 C 290.323 250.981, 290.311 251.233, 288.892 252.207 C 287.503 253.160, 287.954 253.907, 292.190 257.668 C 295.154 260.301, 296.582 262.187, 295.798 262.434 C 295.084 262.658, 293.825 263.067, 293 263.342 C 292.175 263.617, 294.297 263.878, 297.715 263.921 C 304.354 264.005, 311.809 261.962, 316.188 258.858 C 320.733 255.635, 324.368 246.799, 324.525 238.592 C 324.658 231.668, 326.424 224, 327.886 224 C 328.289 224, 329.491 224.641, 330.559 225.424 C 332.281 226.687, 332.486 228.028, 332.379 237.321 C 332.232 250.008, 329.824 258.889, 324.187 267.542 C 319.973 274.011, 318.096 275.906, 313.500 278.335 C 309.012 280.706, 311.331 280.322, 316.761 277.794 C 319.367 276.581, 324.088 273.017, 327.250 269.874 C 333.885 263.281, 333.707 262.903, 331.562 279 C 329.774 292.409, 327.374 298.685, 320.469 308 L 314.909 315.500 319.455 310.808 C 321.955 308.228, 324 306.439, 324 306.832 C 324 307.226, 321.975 311.102, 319.500 315.445 C 317.025 319.788, 315 323.506, 315 323.708 C 315 324.024, 322.846 318.704, 329.282 314.025 C 331.177 312.647, 331.240 312.681, 330.228 314.525 C 329.632 315.611, 328.002 318.030, 326.606 319.899 C 325.209 321.769, 324.349 323.794, 324.694 324.399 C 325.038 325.005, 324.937 325.151, 324.468 324.724 C 323.540 323.881, 312.990 333.776, 313.015 335.466 C 313.024 336.035, 313.417 335.889, 313.890 335.143 C 314.445 334.268, 314.978 334.155, 315.392 334.824 C 315.744 335.395, 314.931 337.487, 313.584 339.472 C 312.237 341.457, 310.368 345.088, 309.431 347.540 C 308.495 349.993, 307.284 352, 306.742 352 C 306.199 352, 306.308 352.666, 306.983 353.479 C 307.881 354.561, 307.936 355.746, 307.187 357.894 C 306.209 360.700, 306.485 362, 308.058 362 C 308.457 362, 309.040 360.979, 309.353 359.730 C 309.666 358.482, 310.933 356.376, 312.168 355.050 C 313.403 353.724, 316.151 349.233, 318.273 345.070 C 320.396 340.906, 321.905 338.625, 321.627 340 C 320.428 345.941, 320.734 374.436, 321.966 371.500 C 322.427 370.400, 323.310 368.203, 323.928 366.618 C 325.009 363.845, 325.124 363.802, 326.981 365.483 C 331.547 369.615, 330.037 385.919, 323.562 402.413 L 320.079 411.284 323.102 415.493 C 327.132 421.104, 332.660 424.073, 340.315 424.740 C 346.620 425.289, 358 430.002, 358 432.064 C 358 435.703, 347.234 449, 344.288 449 C 343.579 449, 343 449.459, 343 450.019 C 343 450.580, 344.012 450.821, 345.250 450.555 C 346.488 450.290, 351.100 449.371, 355.500 448.513 C 359.900 447.656, 365.300 446.309, 367.500 445.521 C 371.801 443.980, 378.002 443.524, 377.996 444.750 C 377.994 445.163, 377.095 446.972, 375.999 448.770 C 371.830 455.608, 355.921 463.343, 343.201 464.717 C 337.019 465.385, 336.625 465.912, 332.686 478.764 L 330.153 487.028 333.287 488.649 C 338.559 491.375, 353.188 496, 356.538 496 C 360.139 496, 366 497.823, 366 498.943 C 366 500.449, 362.379 502.832, 357.715 504.396 C 350.359 506.862, 342.411 506.448, 332.970 503.107 L 324.795 500.214 322.398 505.636 C 321.079 508.617, 320 511.269, 320 511.529 C 320 511.788, 339.505 512, 363.345 512 C 403.388 512, 406.804 511.867, 408.190 510.250 C 410.375 507.700, 413 500.432, 413 496.930 C 413 495.264, 413.708 492.531, 414.574 490.857 C 415.439 489.184, 415.883 487.550, 415.560 487.226 C 415.236 486.903, 416.059 485.482, 417.388 484.069 C 419.752 481.556, 422.978 473.622, 423.022 470.215 C 423.034 469.272, 423.853 467.449, 424.840 466.165 L 426.637 463.830 431.777 471.665 C 437.698 480.689, 440 486.507, 440 492.444 C 440 497.180, 437.554 506.367, 435.392 509.750 C 434.223 511.579, 434.204 512, 435.292 512 C 436.028 512, 437.492 510.312, 438.546 508.250 L 440.463 504.500 440.792 508.250 L 441.121 512 450.585 512 C 460.003 512, 460.054 511.986, 461.041 509.250 C 463.599 502.150, 463.450 502.205, 466.429 507.289 C 468.506 510.832, 469.786 512, 471.595 512 C 472.918 512, 474 511.764, 474 511.475 C 474 511.187, 472.087 507.925, 469.750 504.225 L 465.500 497.500 465.500 483.212 L 465.500 468.924 471.500 469.212 L 477.500 469.500 482.250 478.798 C 484.863 483.911, 487 487.377, 487 486.499 C 487 485.622, 486.050 483.013, 484.890 480.702 C 483.729 478.391, 482.639 475.375, 482.467 474 C 482.295 472.625, 481.842 470.488, 481.460 469.250 C 480.965 467.645, 481.175 467, 482.192 467 C 482.976 467, 484.491 466.300, 485.559 465.445 C 487.434 463.943, 487.426 463.926, 485.316 464.945 C 481.729 466.678, 480.277 466.184, 477.967 462.447 C 476.760 460.493, 475.936 458.787, 476.136 458.655 C 476.336 458.523, 478.742 457.846, 481.482 457.149 C 487.294 455.673, 492.382 452.096, 494.501 447.998 C 496.472 444.186, 496.436 433.376, 494.428 426.154 C 492.866 420.537, 483.146 399.986, 482.065 400.015 C 481.754 400.024, 480.868 400.431, 480.095 400.920 C 478.962 401.638, 479.374 402.747, 482.224 406.655 C 493.594 422.245, 495.099 435.315, 486.404 442.950 C 483.494 445.505, 482.095 446, 477.781 446 C 470.311 446, 465.064 443.023, 457.233 434.341 C 449.626 425.908, 447.104 420.344, 447.042 411.855 C 446.974 402.672, 449.891 394.883, 466.840 359 C 468.528 355.425, 471.031 348.675, 472.402 344 C 474.357 337.331, 474.905 336.254, 474.946 339 C 474.975 340.925, 472.299 350.340, 468.999 359.923 C 465.700 369.505, 463 377.548, 463 377.795 C 463 378.042, 463.687 377.675, 464.527 376.978 C 468.549 373.640, 476.931 358.542, 481.497 346.412 C 484.326 338.897, 484.586 333.420, 482.562 324 L 481.165 317.500 484.682 314.478 C 487.182 312.329, 488.098 310.797, 487.849 309.177 L 487.500 306.898 484.101 309.416 C 482.231 310.800, 480.360 311.722, 479.942 311.464 C 479.524 311.206, 479.811 308.633, 480.579 305.747 C 481.348 302.861, 481.982 298.363, 481.988 295.750 C 481.995 293.137, 482.321 291, 482.712 291 C 483.104 291, 484.367 292.182, 485.519 293.627 L 487.614 296.253 487.557 290.239 C 487.508 285.094, 487.029 283.567, 484.242 279.688 C 481.872 276.387, 480.180 271.966, 478.031 263.457 C 476.406 257.025, 473.687 248.791, 471.987 245.158 C 468.902 238.565, 468.901 238.558, 471.448 240.951 C 474.436 243.758, 474.483 243.620, 472.475 237.929 C 471.256 234.475, 471.206 233.464, 472.225 232.891 C 472.926 232.497, 474.565 231.250, 475.866 230.119 C 479.027 227.373, 478.415 225.342, 471.112 214.331 C 467.861 209.429, 464.210 203.654, 462.998 201.497 L 460.795 197.575 463.202 195.537 C 464.525 194.417, 466.381 192.262, 467.327 190.750 C 468.653 188.629, 469.821 188, 472.436 188 C 474.309 188, 478.661 186.534, 482.163 184.725 C 487.355 182.041, 488.977 180.570, 491.139 176.581 C 492.936 173.266, 494.851 171.254, 497.139 170.277 L 500.500 168.841 496.284 165.065 L 492.068 161.289 494.017 157.468 C 495.088 155.366, 497.134 152.426, 498.563 150.935 C 500.226 149.198, 501.359 146.655, 501.712 143.862 C 502.015 141.463, 502.810 138.825, 503.479 138 C 506.375 134.429, 506.114 134.077, 497.290 129.656 C 492.456 127.234, 484 123.604, 478.500 121.591 C 473 119.577, 466.554 117.221, 464.176 116.354 C 461.798 115.487, 459.577 114.041, 459.241 113.139 C 458.904 112.238, 456.778 108.350, 454.515 104.500 C 450.027 96.865, 448.597 93.904, 448.841 92.750 C 448.929 92.338, 448.530 92, 447.956 92 C 447.382 92, 447.004 91.437, 447.115 90.750 C 447.227 90.063, 446.356 87.475, 445.181 85 C 443.831 82.157, 443.030 81.236, 443.007 82.500 C 442.986 83.600, 442.639 84.049, 442.235 83.498 C 441.831 82.948, 440.354 81.908, 438.953 81.188 C 437.552 80.468, 435.792 78.897, 435.043 77.697 C 433.182 74.717, 432.009 69.113, 433.104 68.436 C 433.597 68.131, 434 67.207, 434 66.382 C 434 65.505, 433.522 65.178, 432.848 65.594 C 432.215 65.985, 431.202 65.646, 430.598 64.841 C 429.994 64.035, 428.768 63.102, 427.874 62.767 C 426.779 62.357, 426.400 61.361, 426.713 59.720 C 427.028 58.076, 426.645 57.078, 425.538 56.653 C 424.408 56.219, 424.122 56.409, 424.620 57.261 C 425.018 57.943, 424.479 57.748, 423.422 56.828 C 422.365 55.908, 420.213 54.834, 418.639 54.442 C 416.047 53.795, 415.842 53.928, 416.457 55.864 C 416.864 57.148, 416.703 58, 416.052 58 C 415.456 58, 414.967 56.763, 414.965 55.250 C 414.958 48.961, 414.806 48.084, 413.539 47.032 C 412.554 46.214, 411.829 46.314, 410.725 47.418 C 409.907 48.236, 408.970 48.637, 408.643 48.310 C 408.316 47.983, 407.444 48.216, 406.706 48.829 C 405.707 49.658, 404.859 49.590, 403.393 48.563 C 401.525 47.254, 401.445 47.372, 401.840 50.841 L 402.256 54.500 400.051 52.526 C 398.839 51.440, 398.334 50.389, 398.930 50.190 C 400.602 49.633, 399.119 48, 396.941 48 C 395.442 48, 394.973 47.260, 394.882 44.750 C 394.774 41.800, 394.705 41.731, 394.132 44 C 393.473 46.609, 391.742 47.499, 389.215 46.529 C 387.942 46.041, 387.982 45.677, 389.492 44.008 C 391.218 42.101, 391.172 42.071, 387.378 42.640 C 385.245 42.959, 382.744 43.201, 381.820 43.178 C 380.696 43.149, 380.262 43.766, 380.509 45.046 C 380.711 46.098, 380.342 47.265, 379.689 47.639 C 379.035 48.014, 378.829 47.957, 379.231 47.513 C 380.179 46.465, 372.855 40.988, 371.518 41.745 C 370.958 42.062, 370.834 41.952, 371.241 41.502 C 371.649 41.052, 371.524 40.131, 370.963 39.456 C 370.172 38.503, 369.111 38.487, 366.222 39.388 C 360.172 41.273, 356.466 43.663, 352.359 48.329 C 349.135 51.992, 348.121 52.589, 346.280 51.908 C 345.065 51.458, 338.767 46.677, 332.285 41.283 C 325.803 35.889, 318.380 29.955, 315.789 28.096 C 313.199 26.238, 309.956 23.021, 308.584 20.947 C 306.705 18.108, 304.657 16.635, 300.294 14.983 C 292.443 12.010, 277.814 9.045, 270.500 8.943 C 261.504 8.818, 259.100 7.430, 266.278 6.506 C 270.414 5.974, 272.344 5.225, 273.069 3.872 C 273.909 2.302, 273.638 1.813, 271.475 0.991 C 267.631 -0.471, 247.198 -0.161, 242.751 1.426 M 308.036 39.431 C 313.534 44.806, 328.874 55.993, 330.750 55.996 C 331.988 55.998, 333 55.656, 333 55.236 C 333 53.510, 320.828 41.146, 317.640 39.633 C 315.747 38.735, 312.482 38, 310.385 38 C 307.061 38, 306.759 38.184, 308.036 39.431 M 390 45 C 389.175 45.533, 388.950 45.969, 389.500 45.969 C 390.050 45.969, 391.175 45.533, 392 45 C 392.825 44.467, 393.050 44.031, 392.500 44.031 C 391.950 44.031, 390.825 44.467, 390 45 M 307.220 50.277 C 306.450 53.517, 304.857 56.584, 302.889 58.614 C 299.781 61.821, 299.779 61.831, 301.638 64.412 C 303.680 67.248, 308.165 69.006, 308.765 67.206 C 309.827 64.019, 313.995 59.267, 317.278 57.500 C 319.322 56.400, 320.996 55.269, 320.997 54.987 C 321 54.504, 311.701 47.057, 309.469 45.754 C 308.867 45.403, 307.930 47.288, 307.220 50.277 M 362.500 51 C 362.840 51.550, 363.991 52, 365.059 52 C 366.127 52, 367 51.550, 367 51 C 367 50.450, 365.848 50, 364.441 50 C 362.990 50, 362.149 50.433, 362.500 51 M 370.991 53.489 C 371.671 54.308, 372.674 54.702, 373.220 54.364 C 373.824 53.991, 373.681 53.413, 372.857 52.890 C 370.700 51.524, 369.641 51.863, 370.991 53.489 M 378 58.227 C 378 60.050, 379.773 61.561, 380.757 60.576 C 381.100 60.233, 380.620 59.192, 379.690 58.262 C 378.132 56.703, 378 56.700, 378 58.227 M 297.723 65.611 C 297.325 66.008, 297 67.017, 297 67.852 C 297 68.688, 296.121 70.307, 295.046 71.451 C 293.967 72.600, 293.419 74.060, 293.822 74.713 C 294.739 76.196, 296.007 75.344, 298.764 71.394 C 300.556 68.825, 300.716 67.994, 299.688 66.588 C 299.004 65.653, 298.120 65.213, 297.723 65.611 M 412 72.941 C 412 74.617, 413.774 75.033, 414.364 73.494 C 414.712 72.587, 414.361 72, 413.469 72 C 412.661 72, 412 72.423, 412 72.941 M 389.638 77.500 C 389.955 78.325, 390.671 79, 391.229 79 C 391.815 79, 391.718 78.365, 391 77.500 C 390.315 76.675, 389.599 76, 389.409 76 C 389.219 76, 389.322 76.675, 389.638 77.500 M 416.500 83 C 416.840 83.550, 417.541 84, 418.059 84 C 418.577 84, 419 83.550, 419 83 C 419 82.450, 418.298 82, 417.441 82 C 416.584 82, 416.160 82.450, 416.500 83 M 395.510 84.016 C 395.856 84.575, 396.557 84.774, 397.069 84.457 C 398.456 83.600, 398.198 83, 396.441 83 C 395.584 83, 395.165 83.457, 395.510 84.016 M 56 85.892 C 56 86.566, 55.480 86.797, 54.845 86.405 C 54.101 85.945, 53.964 86.132, 54.458 86.933 C 55.004 87.815, 55.536 87.864, 56.296 87.104 C 56.885 86.515, 57.059 85.726, 56.683 85.350 C 56.307 84.974, 56 85.218, 56 85.892 M 127.638 86.500 C 127.955 87.325, 129.178 87.986, 130.357 87.968 C 132.456 87.937, 132.461 87.907, 130.559 86.468 C 128.068 84.584, 126.908 84.597, 127.638 86.500 M 359 85.893 C 359 86.384, 359.712 87.059, 360.582 87.393 C 362.710 88.210, 362.705 88.211, 363.362 86.500 C 363.777 85.416, 363.252 85, 361.469 85 C 360.111 85, 359 85.402, 359 85.893 M 425.636 86.494 C 425.952 87.316, 426.620 87.735, 427.121 87.425 C 428.170 86.777, 427.328 85, 425.972 85 C 425.472 85, 425.321 85.672, 425.636 86.494 M 403.369 87.480 C 402.525 89.680, 403.453 90.364, 404.906 88.613 C 405.724 87.628, 405.766 86.974, 405.041 86.526 C 404.461 86.167, 403.708 86.596, 403.369 87.480 M 100 87.969 C 100 88.501, 100.675 88.678, 101.500 88.362 C 102.325 88.045, 103 87.609, 103 87.393 C 103 87.177, 102.325 87, 101.500 87 C 100.675 87, 100 87.436, 100 87.969 M 390 88.559 C 390 89.416, 390.457 89.835, 391.016 89.490 C 391.575 89.144, 391.774 88.443, 391.457 87.931 C 390.600 86.544, 390 86.802, 390 88.559 M 427.583 89.866 C 427.152 90.563, 427.070 91.403, 427.400 91.733 C 428.295 92.628, 429.271 91.312, 428.787 89.862 C 428.449 88.846, 428.213 88.846, 427.583 89.866 M 82.813 92.683 C 83.534 92.972, 84.397 92.936, 84.729 92.604 C 85.061 92.272, 84.471 92.036, 83.417 92.079 C 82.252 92.127, 82.015 92.364, 82.813 92.683 M 365 94.500 C 365 95.325, 365.648 96, 366.441 96 C 368.557 96, 369.243 94.307, 367.412 93.605 C 365.184 92.750, 365 92.818, 365 94.500 M 68 97 C 66.707 97.835, 66.734 97.971, 68.191 97.985 C 69.121 97.993, 70.160 97.550, 70.500 97 C 71.282 95.734, 69.958 95.734, 68 97 M 386.500 97 C 386.160 97.550, 386.359 98, 386.941 98 C 387.523 98, 388 97.550, 388 97 C 388 96.450, 387.802 96, 387.559 96 C 387.316 96, 386.840 96.450, 386.500 97 M 399 98 C 399 98.550, 399.450 99, 400 99 C 400.550 99, 401 98.550, 401 98 C 401 97.450, 400.550 97, 400 97 C 399.450 97, 399 97.450, 399 98 M 90 105.441 C 90 106.298, 90.450 107, 91 107 C 91.550 107, 92 106.577, 92 106.059 C 92 105.541, 91.550 104.840, 91 104.500 C 90.450 104.160, 90 104.584, 90 105.441 M 103.032 107.191 C 103.014 108.121, 103.480 109.179, 104.067 109.541 C 105.829 110.630, 106.076 109.482, 104.521 107.427 C 103.241 105.735, 103.060 105.706, 103.032 107.191 M 398 108.059 C 398 109.191, 398.430 109.852, 398.956 109.527 C 399.482 109.202, 399.659 108.275, 399.349 107.468 C 398.556 105.401, 398 105.644, 398 108.059 M 116 109 C 116 109.550, 116.702 110, 117.559 110 C 118.416 110, 118.840 109.550, 118.500 109 C 118.160 108.450, 117.459 108, 116.941 108 C 116.423 108, 116 108.450, 116 109 M 403 111.882 C 403 112.982, 403.450 114.160, 404 114.500 C 404.550 114.840, 405 114.218, 405 113.118 C 405 112.018, 404.550 110.840, 404 110.500 C 403.450 110.160, 403 110.782, 403 111.882 M 107.583 121.866 C 107.152 122.563, 107.070 123.403, 107.400 123.733 C 108.295 124.628, 109.271 123.312, 108.787 121.862 C 108.449 120.846, 108.213 120.846, 107.583 121.866 M 401.667 127.667 C 401.300 128.033, 401 128.798, 401 129.367 C 401 129.993, 401.466 129.934, 402.183 129.217 C 402.834 128.566, 403.134 127.801, 402.850 127.517 C 402.566 127.233, 402.033 127.300, 401.667 127.667 M 270.121 175.497 C 271.149 186.258, 271.744 188.312, 273.624 187.591 C 274.471 187.266, 276.434 187, 277.986 187 L 280.808 187 275.920 178.750 C 273.231 174.213, 270.657 169.857, 270.201 169.071 C 269.745 168.284, 269.709 171.176, 270.121 175.497 M 155.240 176.500 C 154.331 180.965, 151 206.351, 151 208.810 C 151 208.987, 153.137 208.909, 155.750 208.637 C 158.363 208.364, 160.963 208.109, 161.528 208.070 C 162.171 208.026, 161.719 203.417, 160.318 195.750 C 159.088 189.012, 157.717 180.575, 157.271 177 L 156.461 170.500 155.240 176.500 M 251 189.441 C 251 190.234, 251.408 191.134, 251.907 191.442 C 252.405 191.751, 252.578 191.102, 252.290 190.001 C 251.679 187.666, 251 187.371, 251 189.441 M 275.250 191.820 C 274.012 191.995, 273 192.548, 273 193.047 C 273 196.116, 281.843 215.923, 284.630 219.096 C 285.905 220.549, 286.500 220.469, 291.212 218.214 C 296.256 215.800, 296.338 215.693, 294.369 214.098 C 293.257 213.197, 292.517 211.948, 292.726 211.322 C 292.935 210.696, 292.632 209.890, 292.053 209.533 C 291.474 209.175, 291 208.380, 291 207.767 C 291 207.153, 292.087 207.672, 293.415 208.920 C 295.205 210.602, 296.432 210.998, 298.157 210.450 C 300.165 209.813, 300.310 209.921, 299.217 211.239 C 297.719 213.044, 299.359 214, 303.954 214 C 306.496 214, 305.716 212.981, 295.154 202.518 C 282.928 190.404, 283.406 190.661, 275.250 191.820 M 253.047 196.500 C 253.023 197.986, 254.808 200.526, 255.435 199.898 C 255.735 199.599, 255.323 198.487, 254.521 197.427 C 253.720 196.367, 253.056 195.950, 253.047 196.500 M 180.654 203.609 C 179.883 205.935, 180.709 209, 182.107 209 C 183.125 209, 183.117 207.592, 182.077 204 C 181.379 201.590, 181.328 201.576, 180.654 203.609 M 255.569 202.888 C 254.879 204.004, 261.079 222.093, 264.903 230.123 L 267.664 235.919 271.880 231.622 C 275.327 228.110, 275.846 227.117, 274.725 226.187 C 273.693 225.330, 273.046 225.352, 272.117 226.274 C 271.139 227.244, 271.010 227.162, 271.498 225.879 C 271.895 224.835, 270.307 221.869, 267.037 217.549 C 264.244 213.859, 261.075 209.106, 259.994 206.988 C 257.839 202.764, 256.444 201.472, 255.569 202.888 M 155.599 211.732 L 150.698 212.122 151.331 224.628 C 151.680 231.507, 152.215 237.539, 152.520 238.033 C 152.826 238.527, 154.605 238.202, 156.475 237.310 L 159.875 235.689 157.431 233.767 C 156.087 232.710, 154.488 230.912, 153.878 229.772 L 152.769 227.699 155.634 229.675 C 158.936 231.951, 163.050 233.587, 167.888 234.547 C 171.061 235.177, 171.241 235.070, 170.743 232.860 C 169.128 225.696, 163.338 211.516, 161.995 211.434 C 161.173 211.384, 158.294 211.518, 155.599 211.732 M 181.379 222.647 C 181.758 228.066, 182.455 232.634, 182.928 232.798 C 183.401 232.962, 183.587 233.863, 183.342 234.801 C 183.006 236.085, 184.553 237.308, 189.611 239.757 C 193.304 241.545, 196.488 242.845, 196.687 242.646 C 196.886 242.447, 195.575 240.803, 193.774 238.993 C 191.973 237.182, 191.063 236.020, 191.750 236.410 C 193.417 237.354, 193.352 236.971, 190.888 231.333 C 189.726 228.675, 187.773 223.575, 186.546 220 C 185.046 215.627, 183.723 213.384, 182.503 213.147 C 180.815 212.818, 180.738 213.470, 181.379 222.647 M 144.678 228.525 C 144.317 230.711, 144.017 235.616, 144.011 239.424 L 144 246.349 146.552 243.951 C 148.505 242.116, 148.952 240.959, 148.454 239.027 C 148.097 237.637, 147.248 233.811, 146.569 230.525 L 145.335 224.550 144.678 228.525 M 303 226 C 303 226.550, 303.477 227, 304.059 227 C 304.641 227, 304.840 226.550, 304.500 226 C 304.160 225.450, 303.684 225, 303.441 225 C 303.198 225, 303 225.450, 303 226 M 308.061 233.191 C 307.370 235.496, 306.367 238.534, 305.832 239.941 C 305.297 241.348, 304.900 242.617, 304.950 242.760 C 305 242.904, 304.323 244.408, 303.447 246.103 C 302.570 247.799, 302.070 249.403, 302.335 249.668 C 302.600 249.934, 303.114 249.217, 303.476 248.075 C 303.843 246.918, 304.990 246, 306.067 246 C 308.101 246, 308.744 244.415, 306.953 243.818 C 306.299 243.600, 306.630 241.782, 307.832 238.984 C 310.277 233.293, 311.286 229, 310.177 229 C 309.704 229, 308.752 230.886, 308.061 233.191 M 423.420 232.652 C 423.769 233.561, 424.830 237.274, 425.777 240.902 L 427.500 247.500 427.800 241.754 C 428.024 237.452, 427.647 235.387, 426.300 233.536 C 424.252 230.722, 422.469 230.175, 423.420 232.652 M 315 237.800 C 315 240.660, 315.450 243, 316 243 C 317.647 243, 317.576 235.279, 315.914 233.550 C 315.357 232.972, 315 234.635, 315 237.800 M 271.250 235.674 C 270.012 236.538, 269 237.864, 269 238.622 C 269 240.999, 270.883 240.127, 272.500 237 C 274.274 233.570, 274.271 233.567, 271.250 235.674 M 288 234.393 C 288 234.609, 288.698 235.054, 289.552 235.382 C 290.442 235.723, 290.843 235.555, 290.493 234.989 C 289.906 234.038, 288 233.583, 288 234.393 M 185 246 C 185 246.550, 185.450 247, 186 247 C 186.550 247, 187 246.550, 187 246 C 187 245.450, 186.550 245, 186 245 C 185.450 245, 185 245.450, 185 246 M 367.923 255.095 C 367.056 257.793, 366.457 260, 366.592 260 C 366.727 260, 367.803 258.437, 368.983 256.527 C 370.334 254.342, 370.827 252.523, 370.315 251.622 C 369.738 250.607, 369.040 251.620, 367.923 255.095 M 304.473 252.044 C 303.707 253.283, 305.872 256.197, 307.028 255.483 C 307.469 255.210, 308.031 255.553, 308.278 256.244 C 308.524 256.935, 309.095 257.155, 309.546 256.733 C 309.998 256.312, 309.869 255.469, 309.261 254.861 C 308.654 254.254, 308.394 253.136, 308.685 252.378 C 309.314 250.738, 305.468 250.433, 304.473 252.044 M 300.507 253.989 C 300.157 254.555, 300.558 254.723, 301.448 254.382 C 303.180 253.717, 303.497 253, 302.059 253 C 301.541 253, 300.843 253.445, 300.507 253.989 M 184 254.378 C 184 254.585, 184.787 255.373, 185.750 256.128 C 187.336 257.371, 187.371 257.336, 186.128 255.750 C 184.821 254.084, 184 253.555, 184 254.378 M 434.007 255.250 C 434.010 255.938, 434.942 257.850, 436.077 259.500 L 438.142 262.500 437.453 259 C 437.075 257.075, 436.566 255.162, 436.323 254.750 C 435.612 253.541, 433.999 253.889, 434.007 255.250 M 428 261.948 C 428 263.020, 426.881 267.439, 425.513 271.768 L 423.027 279.640 424.903 286.070 C 425.935 289.606, 428.172 296.369, 429.875 301.098 C 433.075 309.986, 436.634 327.904, 435.689 330.368 C 435.372 331.194, 432.354 332.254, 428.326 332.953 C 424.572 333.604, 419.530 335.006, 417.123 336.069 C 414.715 337.131, 412.148 338, 411.418 338 C 410.057 338, 409.512 340.309, 408.560 350.114 C 407.907 356.834, 409.390 369.582, 411.628 376.500 C 413.315 381.714, 415.879 385.644, 414.564 381 C 411.894 371.571, 413.152 358.688, 418.011 345.700 C 420.267 339.669, 421.968 338.689, 424.329 342.059 C 425.875 344.267, 431.892 349, 433.152 349 C 434.188 349, 437.666 336.990, 438.945 329 C 441.363 313.886, 439.655 287.980, 435.351 274.500 C 431.611 262.786, 428 256.621, 428 261.948 M 184.694 262.639 C 183.895 263.438, 184.798 265, 186.059 265 C 186.577 265, 187 264.325, 187 263.500 C 187 261.954, 185.820 261.513, 184.694 262.639 M 366.210 267.937 C 359.787 274.691, 351.591 288.629, 353.592 289.397 C 354.896 289.897, 364.845 283.039, 368.212 279.318 C 369.246 278.175, 370.273 274.506, 370.829 269.969 C 371.332 265.861, 371.689 262.472, 371.622 262.437 C 371.555 262.403, 369.119 264.878, 366.210 267.937 M 185 271.393 C 185 273.393, 187.725 274.160, 188.417 272.355 C 189.271 270.131, 189.192 270, 187 270 C 185.900 270, 185 270.627, 185 271.393 M 171 280.969 C 171 281.501, 171.675 281.678, 172.500 281.362 C 173.325 281.045, 174 280.609, 174 280.393 C 174 280.177, 173.325 280, 172.500 280 C 171.675 280, 171 280.436, 171 280.969 M 500.451 319.293 C 507.848 336.020, 508.924 347.831, 503.955 357.774 C 498.727 368.236, 486.135 378.256, 478 378.426 C 473.251 378.526, 468.932 383.604, 471.989 385.493 C 472.570 385.852, 472.714 385.417, 472.337 384.437 C 471.835 383.128, 472.121 382.904, 473.665 383.394 C 476.413 384.266, 485.593 382.375, 490.765 379.872 C 496.389 377.149, 504.189 369.509, 507.030 363.941 C 508.865 360.344, 509.271 357.906, 509.266 350.523 C 509.257 339.906, 507.281 331.325, 502.523 321.250 C 498.586 312.915, 496.945 311.365, 500.451 319.293 M 263.354 318.475 C 261.624 319.854, 259.245 322.614, 258.069 324.608 L 255.929 328.235 258.715 327.550 C 260.247 327.174, 264.790 325.291, 268.810 323.366 C 274.138 320.816, 276.034 319.410, 275.801 318.183 C 275.568 316.954, 274.271 316.428, 270.991 316.234 C 267.447 316.023, 265.836 316.496, 263.354 318.475 M 322.500 327 C 322.160 327.550, 322.359 328, 322.941 328 C 323.523 328, 324 327.550, 324 327 C 324 326.450, 323.802 326, 323.559 326 C 323.316 326, 322.840 326.450, 322.500 327 M 316.861 331.976 L 314.500 333.952 317.242 332.726 C 318.750 332.052, 319.988 331.163, 319.992 330.750 C 320.004 329.602, 319.427 329.828, 316.861 331.976 M 307 338.637 C 301.556 342.913, 300.882 343.600, 303.500 342.205 C 305.678 341.044, 312.812 335.075, 312 335.092 C 311.725 335.098, 309.475 336.693, 307 338.637 M 84.089 340.105 C 81.008 350.408, 72.919 362.907, 63.447 372 C 60.296 375.025, 58.003 376.987, 58.350 376.359 C 58.698 375.732, 57.903 374.511, 56.582 373.646 C 54.328 372.169, 54.094 372.208, 52.736 374.287 C 48.737 380.405, 46.531 386.273, 45.396 393.807 C 43.762 404.651, 44.411 409, 47.662 409 C 48.983 409, 50.322 409.675, 50.638 410.500 C 50.955 411.325, 51.589 412, 52.046 412 C 53.105 412, 62.629 396.631, 68.982 384.672 C 75.786 371.863, 80.543 359.889, 83.547 348.005 C 86.133 337.775, 86.534 331.929, 84.089 340.105 M 60.873 355.754 C 55.904 361.926, 52.010 367.928, 52.004 369.426 C 51.999 370.578, 62.638 356.502, 64.608 352.750 C 65.402 351.238, 65.927 350.002, 65.776 350.004 C 65.624 350.006, 63.418 352.593, 60.873 355.754 M 279.241 357.368 C 269.820 363.433, 267.207 365.669, 274.264 361.628 C 276.884 360.127, 279.541 359.216, 280.169 359.604 C 280.855 360.028, 281.035 359.866, 280.622 359.197 C 280.226 358.556, 281.144 357.460, 282.790 356.609 C 285.226 355.349, 288.998 351.948, 287.872 352.026 C 287.668 352.040, 283.783 354.444, 279.241 357.368 M 238.073 361.804 C 240.588 363.414, 244.391 366.929, 246.523 369.616 C 251.775 376.232, 252.458 376.912, 250.987 374.062 C 250.295 372.721, 247.744 369.503, 245.319 366.910 C 242.894 364.318, 241.268 362.001, 241.705 361.762 C 242.142 361.523, 241.967 361.454, 241.315 361.608 C 240.663 361.762, 239.988 361.533, 239.815 361.099 C 239.642 360.665, 238.150 359.987, 236.500 359.593 C 233.874 358.967, 234.071 359.243, 238.073 361.804 M 245 362.299 C 245 363.235, 257.173 367.106, 258.785 366.683 C 260.104 366.336, 260.009 366.205, 258.372 366.116 C 257.202 366.052, 254.727 365.379, 252.872 364.620 C 248.295 362.747, 245 361.775, 245 362.299 M 305 363.559 C 305 364.416, 305.457 364.835, 306.016 364.490 C 306.575 364.144, 306.774 363.443, 306.457 362.931 C 305.600 361.544, 305 361.802, 305 363.559 M 406.277 380 C 406.572 392.910, 407.086 398.452, 408.236 401.128 C 410.116 405.501, 411.601 406.576, 413.540 404.967 C 415.644 403.220, 414.497 391.970, 410.904 379.107 C 409.307 373.391, 407.993 367.991, 407.985 367.107 C 407.976 366.223, 407.499 364.825, 406.923 364 C 406.184 362.940, 405.995 367.635, 406.277 380 M 261.813 366.683 C 262.534 366.972, 263.397 366.936, 263.729 366.604 C 264.061 366.272, 263.471 366.036, 262.417 366.079 C 261.252 366.127, 261.015 366.364, 261.813 366.683 M 235.086 376 C 235.055 376.825, 235.467 378.175, 236 379 C 237.181 380.828, 237.181 379.249, 236 376.500 C 235.433 375.181, 235.122 375.011, 235.086 376 M 252.244 377.500 C 253.322 381.711, 262.819 404.935, 265.901 410.901 C 269.180 417.246, 270.137 418.345, 272.613 418.607 C 274.201 418.775, 276.400 419.138, 277.500 419.413 C 278.600 419.688, 282.968 419.993, 287.206 420.091 L 294.912 420.270 293.430 423.135 C 291.587 426.700, 290.572 426.843, 291.432 423.416 C 291.852 421.741, 291.715 421.058, 291.040 421.475 C 290.468 421.829, 290 422.604, 290 423.198 C 290 425.231, 281.502 438.942, 280.464 438.584 C 279.895 438.388, 279.429 439.059, 279.429 440.075 C 279.429 441.824, 279.530 441.831, 281.343 440.211 C 286.780 435.352, 303.531 410.853, 309.440 399.120 C 316.413 385.272, 318.939 378.422, 314.500 385.398 C 312.295 388.862, 301.599 390.490, 281 390.495 C 269.054 390.498, 260.809 390.090, 259.715 389.441 C 258.734 388.858, 256.593 385.708, 254.959 382.441 C 253.325 379.173, 252.103 376.950, 252.244 377.500 M 31.063 393.950 C 31.020 396.318, 31.323 397.077, 32.030 396.370 C 32.713 395.687, 32.734 394.522, 32.094 392.920 C 31.185 390.646, 31.123 390.708, 31.063 393.950 M 33.203 403.046 C 32.103 404.808, 32.313 405.805, 34.713 410.219 C 37.404 415.170, 44.314 421.395, 46.360 420.713 C 46.908 420.531, 47.803 419.674, 48.349 418.809 C 49.119 417.587, 48.525 416.522, 45.680 414.024 C 43.667 412.257, 40.590 408.603, 38.842 405.905 C 37.093 403.207, 35.397 401, 35.072 401 C 34.747 401, 33.906 401.921, 33.203 403.046 M 325.053 408.436 C 322.899 411.032, 327.072 415.802, 332.758 417.244 C 334.813 417.765, 334.751 417.570, 332.065 415.061 C 330.442 413.545, 328.815 411.111, 328.449 409.652 C 327.699 406.664, 326.793 406.339, 325.053 408.436 M 27.464 415.109 C 24.319 424.576, 26.423 432.099, 33.194 435.600 C 35.845 436.971, 35.965 436.896, 39.918 431.375 L 43.943 425.754 39.180 421.472 C 36.560 419.117, 33.546 415.572, 32.481 413.595 C 31.416 411.618, 30.234 410, 29.853 410 C 29.472 410, 28.397 412.299, 27.464 415.109 M 251.079 421.583 C 251.127 422.748, 251.364 422.985, 251.683 422.188 C 251.972 421.466, 251.936 420.603, 251.604 420.271 C 251.272 419.939, 251.036 420.529, 251.079 421.583 M 274.317 427.491 C 276.005 431.592, 277.544 434.789, 277.738 434.596 C 278.233 434.100, 272.945 421.084, 272.014 420.509 C 271.593 420.248, 272.629 423.390, 274.317 427.491 M 312 424 C 311.411 425.100, 311.155 426, 311.430 426 C 311.705 426, 312.411 425.100, 313 424 C 313.589 422.900, 313.845 422, 313.570 422 C 313.295 422, 312.589 422.900, 312 424 M 308.162 431.543 C 306.487 435.220, 306.807 436.005, 308.618 432.662 C 309.464 431.100, 309.969 429.636, 309.741 429.407 C 309.512 429.179, 308.802 430.140, 308.162 431.543 M 345.946 432.104 C 347.292 432.641, 348.888 433.400, 349.493 433.790 C 350.099 434.181, 349.736 433.712, 348.686 432.750 C 347.637 431.788, 346.041 431.029, 345.139 431.063 C 344.103 431.103, 344.400 431.486, 345.946 432.104 M 336.441 434.555 C 334.611 436.022, 334.643 436.042, 337 434.920 C 340.061 433.462, 340.628 433, 339.358 433 C 338.821 433, 337.509 433.700, 336.441 434.555 M 329.403 440.250 C 325.756 444.111, 321.160 449.886, 323.633 447.500 C 326.295 444.930, 334.226 436, 333.845 436 C 333.609 436, 331.610 437.913, 329.403 440.250 M 273.872 446.750 C 272.629 448.336, 272.664 448.371, 274.250 447.128 C 275.212 446.373, 276 445.585, 276 445.378 C 276 444.555, 275.179 445.084, 273.872 446.750 M 321 451 C 320.411 452.100, 320.155 453, 320.430 453 C 320.705 453, 321.411 452.100, 322 451 C 322.589 449.900, 322.845 449, 322.570 449 C 322.295 449, 321.589 449.900, 321 451 M 296 457 C 294.718 457.828, 294.754 457.972, 296.250 457.985 C 297.212 457.993, 298 457.550, 298 457 C 298 455.780, 297.887 455.780, 296 457 M 302.813 456.683 C 303.534 456.972, 304.397 456.936, 304.729 456.604 C 305.061 456.272, 304.471 456.036, 303.417 456.079 C 302.252 456.127, 302.015 456.364, 302.813 456.683 M 463.391 459.176 C 462.076 461.304, 464.308 463.826, 468.557 465.016 C 471.032 465.709, 473.257 466.077, 473.500 465.833 C 473.743 465.590, 472.946 463.988, 471.728 462.273 C 469.570 459.236, 464.515 457.357, 463.391 459.176 M 195.252 483.500 C 195.263 485.700, 195.468 486.482, 195.707 485.238 C 195.946 483.994, 195.937 482.194, 195.687 481.238 C 195.437 480.282, 195.241 481.300, 195.252 483.500 M 13.079 486.583 C 13.127 487.748, 13.364 487.985, 13.683 487.188 C 13.972 486.466, 13.936 485.603, 13.604 485.271 C 13.272 484.939, 13.036 485.529, 13.079 486.583 M 487.079 490.583 C 487.127 491.748, 487.364 491.985, 487.683 491.188 C 487.972 490.466, 487.936 489.603, 487.604 489.271 C 487.272 488.939, 487.036 489.529, 487.079 490.583 M 288.882 494.906 C 289.962 495.590, 289.782 495.934, 288.057 496.482 C 286.843 496.867, 286.050 497.383, 286.295 497.629 C 286.954 498.287, 292 495.820, 292 494.839 C 292 494.378, 290.988 494.007, 289.750 494.015 C 288.075 494.027, 287.853 494.254, 288.882 494.906 M 488.079 496.583 C 488.127 497.748, 488.364 497.985, 488.683 497.188 C 488.972 496.466, 488.936 495.603, 488.604 495.271 C 488.272 494.939, 488.036 495.529, 488.079 496.583 M 12.158 498 C 12.158 499.375, 12.385 499.938, 12.662 499.250 C 12.940 498.563, 12.940 497.438, 12.662 496.750 C 12.385 496.063, 12.158 496.625, 12.158 498 M 446.158 504 C 446.158 505.375, 446.385 505.938, 446.662 505.250 C 446.940 504.563, 446.940 503.438, 446.662 502.750 C 446.385 502.063, 446.158 502.625, 446.158 504" stroke="none" fill="black" fill-rule="evenodd"/>
</svg>